PathFileType	4	(X/Y/Z)	/home/abdul/Desktop/myosuite/custom_workspace/IK/output/S11_12_2.trc
DataRate	CameraRate	NumFrames	NumMarkers	Units	OrigDataRate	OrigDataStartFrame	OrigNumFrames
200.0	200.0	50	3	mm	200.0	1126	1500
Frame#	Time	V_Shoulder			V_Elbow			V_Wrist		
		X1	Y1	Z1	X2	Y2	Z2	X3	Y3	Z3

1126	5.625	-105.47489714015354	552.944285100155	283.41359868406283	-256.6282500125977	355.79033686111484	29.873384453633456	-109.54414357161943	146.32195260759767	80.02106470942988
1127	5.63	-105.46591776830924	553.0129895896109	283.4735088878087	-256.7700414928918	355.7304816516388	30.258351267225727	-109.52498595348969	146.36551190742767	80.48815187058369
1128	5.635	-105.45671444554193	553.082750491417	283.5350524669265	-256.91743347725634	355.6697755989386	30.655668291859804	-109.50836294467834	146.40912950867744	80.96524083629001
1129	5.64	-105.44725878989289	553.1535080680582	283.59820522043924	-257.0705679944929	355.6083210218512	31.065370640388664	-109.49470164189313	146.45265629560853	81.45219495054945
1130	5.645	-105.43752360182418	553.2252013747994	283.6629408451361	-257.2295916062724	355.54622721716544	31.48748263482787	-109.48445189931947	146.49594124797005	81.94887015477414
1131	5.65	-105.42748294244973	553.2977683395746	283.72923098315056	-257.3946553412747	355.4836103726525	31.922017638084565	-109.47808599801637	146.5388318391207	82.4551152552423
1132	5.655	-105.41711221089197	553.371145847942	283.7970452720471	-257.5659145989586	355.42059345917534	32.36897788946595	-109.47609822792398	146.58117444606987	82.97077218884603
1133	5.66	-105.40638822052942	553.4452698329727	283.86635139724393	-257.74352902194903	355.3573061020251	32.82835434359221	-109.47900438124907	146.62281477027796	83.4956762850782
1134	5.665	-105.39528927389533	553.5200753699121	283.93711514659367	-257.9276623361454	355.29388443172377	33.30012651235997	-109.48734115627542	146.66359826801147	84.02965652220763
1135	5.67	-105.38379523598503	553.5954967754353	284.00930046694197	-258.1184821577883	355.2304709146202	33.78426230963121	-109.50166547093679	146.7033705890152	84.572535775609
1136	5.675	-105.37188760572728	553.6714677112928	284.0828695224848	-258.3161597668573	355.16721416369353	34.28071789835953	-109.52255368578594	146.74197802222977	85.12413105625114
1137	5.68	-105.35954958537339	553.747921292122	284.15778275474133	-258.5208698463178	355.10426873006134	34.789437539909926	-109.55060073629843	146.77926794725983	85.68425373739852
1138	5.685	-105.34676614755831	553.8247901971757	284.2339989439602	-258.732790186888	355.0417948757678	35.31035344538069	-109.58641917475879	146.8150892902766	86.25270976765123
1139	5.69	-105.33352409978811	553.9020067857022	284.3114752717783	-258.9521013571548	354.9799583285063	35.84338562879615	-109.63063812229294	146.84929298302555	86.82929986853435
1140	5.695	-105.31981214611035	553.9795032156845	284.39016738494934	-259.17898633903275	354.9189300189979	36.388441762105515	-109.68390213193058	146.8817324236005	87.41381971495187
1141	5.7	-105.3056209457277	554.0572115656333	284.4700294599626	-259.41363012872864	354.8588858018169	36.94541703199766	-109.74686996390523	146.91226393764242	88.00606009693897
1142	5.705	-105.29094316831807	554.1350639590995	284.55101426837393	-259.65621930355104	354.8000061605128	37.51419399862154	-109.82021327472691	146.94074723862278	88.60580706128232
1143	5.71	-105.27577354583103	554.2129926915662	284.633073242673	-259.9069415550806	354.74247589793663	38.09464245638864	-109.9046152218923	146.967045885878	89.21284203172843
1144	5.715	-105.26010892053642	554.2909303593507	284.7161565425133	-260.1659851893984	354.68648381272544	38.68661929712466	-110.00076898642818	146.9910277390724	89.82694190666419
1145	5.72	-105.24394828910867	554.3688099901391	284.80021312113627	-260.43353859525394	354.6322223629438	39.28996837593372	-110.10937621579617	147.01256540778195	90.44787913333244
1146	5.725	-105.2272928425395	554.4465651747563	284.8851907918233	-260.70978968123825	354.57988731791875	39.90452038023741	-110.23114539001924	147.03153669491047	91.07542175783414
1147	5.73	-105.21014600168154	554.5241301997635	284.9710362942144	-260.9949252832103	354.52967739933183	40.53009270255281	-110.36679011422083	147.04782503267012	91.70933345037
1148	5.735	-105.1925134482364	554.601440180462	285.05769536033745	-261.28913054341143	354.48179391265967	41.166489317677105	-110.51702734109776	147.06131990988456	92.34937350538385
1149	5.74	-105.17440315101315	554.6784311938732	285.145112780196	-261.59258826288175	354.4364403700662	41.81350066505004	-110.68257552717357	147.0719172893977	92.99529681648823
1150	5.745	-105.15582538729636	554.7550404112509	285.2332324667697	-261.90547822897076	354.39382210586484	42.47090353716894	-110.86415272700285	147.07952001440043	93.64685382627599
1151	5.75	-105.13679275917688	554.8312062296833	285.32199752028976	-262.22797651990936	354.35414588567016	43.13846097503211	-111.06247462981403	147.084038202516	94.3037904513505
1152	5.755	-105.11732020471386	554.9068684023272	285.4113502916526	-262.56025478857737	354.31761951035423	43.81592217168527	-111.27825254339142	147.08538962651494	94.96584798313808
1153	5.76	-105.09742500381265	554.9819681668197	285.5012324448481	-262.90247952776434	354.2844514159184	44.503022385039074	-111.51219133030148	147.0835000805593	95.63276296527826
1154	5.765	-105.0771267787196	555.0564483714096	285.59158501828045	-263.2548113193735	354.2548502703705	45.19948286121503	-111.76498730186628	147.07830373090644	96.3042670486186
1155	5.77	-105.05644748905331	555.1302535983468	285.6823484848698	-263.61740407016566	354.22902456868167	45.90501076975843	-112.03732607557444	147.0697434500297	96.98008682506904
1156	5.775	-105.03541142130867	555.2033302840773	285.77346281082924	-263.99040423677263	354.20718222686696	46.61929915213094	-112.32988040189684	147.0577711331417	97.65994364179463
1157	5.78	-105.01404517279083	555.2756268357891	285.8648675130191	-264.3739500428366	354.18953017620595	47.34202688496025	-112.6433079667407	147.04234799613164	98.3435533974419
1158	5.785	-104.99237762995392	555.3470937438626	285.95650171478866	-264.7681706912422	354.1762739585803	48.07285865957834	-112.97824917602641	147.0234448539518	99.03062632230397
1159	5.79	-104.97043994114021	555.4176836897872	286.04830420022313	-265.1731855745064	354.16761732386834	48.811444979423186	-113.33532492911073	147.0010423785116	99.72086674452692
1160	5.795	-104.94826548373491	555.4873516491162	286.140213466721	-265.589103486479	354.16376183029155	49.55742217690942	-113.7151343880004	146.97513133515858	100.41397284464739
1161	5.8	-104.92588982577223	555.5560549890439	286.2321677758361	-266.0160218385747	354.1649064485608	50.31041245139075	-114.11825274950573	146.94571279684345	101.10963640092493
1162	5.805	-104.90335068204884	555.6237535601971	286.3241052023249	-266.4540258838151	354.17124717062285	51.07002392984074	-114.54522902766844	146.91279833508685	101.80754252809007
1163	5.81	-104.88068786482125	555.6904097822606	286.4159636813502	-266.9031879519971	354.1829766237545	51.835850751867326	-114.99658385396438	146.87641018687907	102.50736941227228
1164	5.815	-104.85794322918355	555.7559887230617	286.5076810537962	-267.3635666993281	354.2002836907005	52.60747318065006	-115.47280730292475	146.83658139666196	103.20878804499527
1165	5.82	-104.83516061324259	555.8204581707627	286.59919510966284	-267.8352063758761	354.2233531364982	53.38445774134777	-115.97435675094079	146.79335593255658	103.91146195923324
1166	5.825	-104.8123857732267	555.8837886988358	286.69044362950996	-268.31813611417095	354.25236524257696	54.166357388466274	-116.50165477611273	146.74678877601573	104.61504697060792
1167	5.83	-104.78966631368395	555.9459537235086	286.78136442393316	-268.8123692422673	354.28749544867	54.952711703603214	-117.0550871070738	146.69694598409825	105.31919092687075
1168	5.835	-104.76705161294466	556.0069295533975	286.87189537105917	-269.31790262453546	354.32891400302174	55.743047124897636	-117.63500062876398	146.6439047235784	106.02353346885889
1169	5.84	-104.74459274404022	556.0666954310741	286.9619744520556	-269.83471603338614	354.37678562132794	56.5368772094085	-118.24170145314126	146.5877532761256	106.72770580613654
1170	5.845	-104.72234239128896	556.1252335663297	287.05153978465796	-270.3627715550571	354.43126915479263	57.33370292952702	-118.8754530628045	146.52859101381244	107.43133051053232
1171	5.85	-104.7003547627753	556.1825291609371	287.14052965472257	-270.9020130324979	354.4925172676456	58.133013004394485	-119.53647453545375	146.4665283442375	108.13402133076202
1172	5.855	-104.67868549896413	556.2385704247349	287.22888254582216	-271.4523655482791	354.56067612442007	58.9342842671514	-120.22493885703739	146.40168662458103	108.83538303128111
1173	5.86	-104.65739157770729	556.2933485828913	287.31653716690505	-272.01373495032914	354.63588508725434	59.73698206868459	-120.94097133132303	146.33419804395092	109.53501125844534
1174	5.865	-104.63653121591221	556.3468578742346	287.40343247804907	-272.5860074231641	354.71827642344635	60.54056071836922	-121.68464809348418	146.26420547342107	110.23249243696851
1175	5.87	-104.61616376815512	556.3990955405694	287.48950771434306	-273.1690491071259	354.8079750234627	61.34446396212273	-122.45599473511561	146.19186228321664	110.92740369955754
